<?xml version="1.0" encoding="UTF-8" standalone="no"?>
<svg
   version="1.0"
   width="1024.000000pt"
   height="1024.000000pt"
   viewBox="0 0 1024.000000 1024.000000"
   preserveAspectRatio="xMidYMid meet"
   id="svg222"
   sodipodi:docname="tire-icon-white.svg"
   inkscape:version="1.2.2 (b0a84865, 2022-12-01)"
   xmlns:inkscape="http://www.inkscape.org/namespaces/inkscape"
   xmlns:sodipodi="http://sodipodi.sourceforge.net/DTD/sodipodi-0.dtd"
   xmlns="http://www.w3.org/2000/svg"
   xmlns:svg="http://www.w3.org/2000/svg">
  <defs
     id="defs226" />
  <sodipodi:namedview
     id="namedview224"
     pagecolor="#ffffff"
     bordercolor="#000000"
     borderopacity="0.25"
     inkscape:showpageshadow="2"
     inkscape:pageopacity="0.0"
     inkscape:pagecheckerboard="0"
     inkscape:deskcolor="#d1d1d1"
     inkscape:document-units="pt"
     showgrid="false"
     inkscape:zoom="0.64233398"
     inkscape:cx="750.38845"
     inkscape:cy="679.55303"
     inkscape:window-width="1390"
     inkscape:window-height="1027"
     inkscape:window-x="1970"
     inkscape:window-y="25"
     inkscape:window-maximized="0"
     inkscape:current-layer="svg222" />
  <g
     transform="translate(0.000000,1024.000000) scale(0.100000,-0.100000)"
     fill="#000000"
     stroke="none"
     id="g220"
     style="fill:#7c7c7c;fill-opacity:1">
    <path
       d="M5050 8200 c-202 -11 -317 -48 -558 -181 -102 -57 -261 -169 -298 -210 -19 -21 -19 -22 1 -16 11 3 90 20 175 37 102 21 165 39 184 53 115 81 220 145 308 187 101 48 300 120 332 120 9 0 16 5 16 10 0 6 -6 9 -12 8 -7 0 -74 -4 -148 -8z"
       id="path132"
       style="fill:#7c7c7c;fill-opacity:1" />
    <path
       d="M5443 8200 c-74 -8 -151 -24 -212 -42 -55 -17 -17 -28 98 -28 57 0 121 -5 143 -12 40 -12 124 -91 113 -108 -3 -4 -22 -14 -41 -20 -35 -12 -38 -11 -61 19 -14 17 -44 42 -66 54 -39 21 -54 22 -217 20 -147 -1 -183 -4 -226 -21 -49 -18 -294 -158 -294 -167 0 -3 79 -2 174 2 196 7 238 -1 291 -57 31 -32 29 -54 -8 -71 -19 -8 -32 -4 -81 25 -73 44 -116 50 -280 42 -213 -11 -191 -2 -335 -142 l-126 -123 205 6 c202 5 206 5 249 -19 62 -33 69 -48 41 -86 l-23 -31 -56 32 -56 32 -175 -1 c-240 -2 -238 -1 -331 -126 -89 -119 -133 -188 -125 -195 3 -3 65 0 139 7 74 7 170 11 214 8 125 -7 181 -51 135 -108 l-18 -23 -57 22 c-84 31 -144 34 -317 17 -126 -12 -157 -18 -168 -33 -18 -23 -172 -336 -168 -340 2 -2 72 5 156 17 84 11 170 20 191 20 56 0 136 -19 160 -39 20 -16 20 -19 6 -54 -18 -42 -19 -43 -78 -21 -57 20 -169 20 -324 -1 -66 -9 -128 -18 -137 -21 -10 -3 -28 -35 -44 -77 -37 -95 -104 -310 -99 -315 2 -2 69 6 148 17 160 23 297 27 346 10 31 -11 32 -13 26 -53 -9 -54 -14 -58 -55 -46 -57 17 -196 12 -341 -11 -75 -11 -141 -24 -148 -28 -16 -10 -99 -407 -87 -419 3 -2 86 10 186 27 181 31 250 37 309 25 31 -7 32 -8 29 -57 l-3 -51 -101 3 c-69 2 -143 -4 -230 -19 -189 -31 -202 -35 -208 -68 -5 -28 -23 -242 -29 -349 -4 -76 -17 -74 188 -32 97 20 183 31 245 32 l95 2 0 -50 0 -50 -110 -6 c-60 -4 -153 -16 -205 -27 -52 -12 -121 -26 -152 -32 l-58 -11 0 -117 c1 -117 15 -321 24 -329 3 -3 100 13 216 36 116 23 233 41 260 41 l50 0 0 -49 0 -48 -63 -7 c-34 -3 -148 -24 -252 -45 l-190 -39 -3 -30 c-3 -31 24 -202 54 -339 13 -59 20 -73 35 -73 29 0 272 48 381 76 53 13 101 24 106 24 5 0 13 -20 19 -45 9 -39 8 -47 -6 -54 -20 -11 -311 -76 -406 -91 -38 -6 -73 -14 -77 -18 -8 -8 34 -156 88 -309 36 -103 36 -103 70 -103 58 0 235 30 334 56 154 40 144 40 158 2 6 -19 12 -39 12 -45 0 -25 -169 -72 -335 -92 -141 -18 -155 -21 -155 -33 0 -24 172 -359 187 -365 23 -9 270 15 339 32 32 9 81 26 107 39 l49 24 19 -32 c11 -17 18 -38 17 -46 -4 -20 -100 -66 -168 -79 -30 -6 -111 -16 -180 -21 -68 -6 -126 -13 -128 -15 -6 -6 80 -133 158 -234 l73 -94 136 6 c163 7 227 19 304 60 31 16 58 28 60 26 1 -2 13 -16 26 -31 29 -34 21 -48 -51 -84 -60 -30 -117 -41 -273 -49 -65 -3 -121 -7 -122 -9 -5 -4 187 -187 232 -222 l38 -29 157 2 c177 1 218 10 289 57 l50 34 26 -20 c31 -24 31 -38 2 -66 -51 -48 -112 -64 -265 -71 l-144 -6 73 -41 c164 -92 340 -142 459 -129 99 11 187 42 225 80 19 19 42 35 52 35 29 0 63 -12 63 -21 0 -15 -70 -88 -91 -94 -10 -4 -19 -11 -19 -17 0 -16 348 -3 470 17 476 78 959 394 1313 859 720 946 895 2504 417 3711 -233 588 -574 1011 -1058 1312 -212 132 -381 202 -588 244 -88 17 -151 22 -324 25 -118 1 -248 -1 -287 -6z m853 -821 c520 -92 989 -606 1198 -1314 43 -147 78 -315 103 -495 25 -186 25 -656 0 -845 -115 -856 -511 -1524 -1062 -1790 -315 -152 -641 -151 -950 1 -280 139 -552 446 -729 826 -236 504 -326 1185 -240 1803 67 477 243 925 493 1253 226 298 508 491 811 556 78 17 293 20 376 5z"
       id="path134"
       style="fill:#7c7c7c;fill-opacity:1" />
    <path
       d="M5956 6920 c-200 -42 -403 -175 -568 -370 -231 -275 -382 -635 -449 -1070 -30 -193 -33 -581 -5 -765 42 -286 107 -506 213 -720 252 -509 668 -783 1080 -711 301 52 546 231 760 554 175 264 296 612 338 968 17 149 20 474 5 625 -41 406 -184 789 -398 1064 -269 347 -620 500 -976 425z m61 -225 c12 -9 25 -31 29 -49 3 -19 -8 -159 -25 -313 -17 -153 -36 -325 -42 -383 -14 -143 -32 -192 -88 -251 -74 -76 -81 -75 -351 81 -124 72 -236 141 -249 155 -52 52 -23 146 102 328 138 202 327 360 507 424 77 27 89 28 117 8z m549 -89 c207 -137 390 -372 499 -641 62 -155 58 -211 -19 -240 -58 -21 -400 -125 -466 -141 -70 -17 -91 -11 -136 38 -61 68 -69 96 -67 243 2 122 26 543 39 683 10 110 48 125 150 58z m-344 -836 c12 -23 18 -58 18 -105 l0 -69 51 -52 c28 -28 70 -80 92 -115 41 -62 44 -64 87 -67 72 -4 89 -11 105 -42 18 -35 20 -99 3 -135 -6 -14 -33 -39 -59 -55 -29 -17 -51 -39 -54 -52 -3 -13 -12 -59 -21 -103 -9 -44 -27 -106 -40 -137 -28 -68 -29 -83 -8 -149 30 -91 -2 -189 -61 -189 -24 0 -65 40 -89 87 -16 32 -17 32 -84 30 -37 -1 -89 5 -115 12 l-48 14 -49 -53 c-40 -43 -52 -51 -72 -45 -34 11 -48 28 -58 71 -10 43 0 103 26 157 15 31 15 38 -5 100 -11 37 -23 98 -26 135 -11 124 -13 131 -66 182 -50 49 -56 65 -50 145 5 68 63 110 114 81 16 -9 34 -16 40 -15 7 0 32 28 56 61 25 34 65 75 90 92 73 50 81 62 81 110 0 86 42 149 95 144 23 -2 34 -11 47 -38z m-1024 -382 c109 -75 390 -283 419 -311 46 -44 68 -114 68 -222 0 -85 -3 -95 -41 -180 -268 -581 -277 -598 -322 -593 -22 2 -34 17 -69 83 -84 159 -159 440 -182 679 -13 134 -14 388 -1 475 9 67 31 101 62 101 11 0 40 -14 66 -32z m1967 -184 c31 -12 45 -59 45 -151 0 -182 -46 -451 -110 -642 -53 -158 -145 -355 -188 -403 -20 -23 -55 -23 -75 0 -9 10 -79 166 -154 348 -136 325 -138 330 -138 404 1 89 24 166 63 203 29 28 96 61 357 173 183 79 176 77 200 68z m-1021 -804 c50 -24 47 -19 238 -400 165 -330 174 -356 129 -403 -57 -61 -244 -117 -390 -117 -124 0 -203 19 -326 79 -123 60 -148 85 -148 145 0 37 11 65 65 158 36 62 111 199 168 303 56 105 111 201 123 214 42 45 81 51 141 21z"
       id="path136"
       style="fill:#7c7c7c;fill-opacity:1" />
    <path
       d="M6070 5484 c-112 -48 -184 -200 -184 -389 0 -388 335 -517 464 -178 27 71 38 231 21 313 -40 195 -175 308 -301 254z"
       id="path138"
       style="fill:#7c7c7c;fill-opacity:1" />
    <path
       d="M4350 8193 c-77 -12 -130 -25 -130 -32 0 -4 17 -15 39 -24 21 -10 60 -36 85 -59 l47 -41 137 66 c75 37 155 73 177 81 37 14 28 15 -145 14 -102 0 -196 -3 -210 -5z"
       id="path140"
       style="fill:#7c7c7c;fill-opacity:1" />
    <path
       d="M3940 8084 c-85 -32 -270 -125 -270 -134 0 -9 33 -16 116 -25 l62 -7 131 87 c72 48 128 91 125 96 -10 17 -99 8 -164 -17z"
       id="path142"
       style="fill:#7c7c7c;fill-opacity:1" />
    <path
       d="M4100 8019 c-117 -76 -172 -118 -165 -129 7 -12 123 -90 133 -90 5 0 32 20 61 45 30 25 82 66 117 91 35 25 64 49 64 53 0 14 -94 91 -110 91 -3 0 -48 -28 -100 -61z"
       id="path144"
       style="fill:#7c7c7c;fill-opacity:1" />
    <path
       d="M3470 7835 c-71 -48 -214 -174 -206 -182 2 -3 59 -15 126 -28 l121 -24 124 125 c69 68 125 126 125 128 0 8 -127 26 -176 26 -41 -1 -59 -8 -114 -45z"
       id="path146"
       style="fill:#7c7c7c;fill-opacity:1" />
    <path
       d="M3753 7748 c-47 -46 -103 -104 -124 -130 l-40 -47 76 -55 c41 -31 80 -56 87 -56 7 0 29 22 48 47 19 26 68 81 108 124 39 42 72 84 72 92 0 14 -118 107 -136 107 -3 0 -45 -37 -91 -82z"
       id="path148"
       style="fill:#7c7c7c;fill-opacity:1" />
    <path
       d="M4245 7753 c-143 -33 -152 -37 -194 -76 -56 -54 -194 -218 -188 -224 4 -3 193 46 317 82 26 8 253 255 233 254 -10 -1 -85 -17 -168 -36z"
       id="path150"
       style="fill:#7c7c7c;fill-opacity:1" />
    <path
       d="M3160 7556 c-24 -13 -159 -171 -207 -242 l-23 -34 22 -4 c195 -41 280 -57 282 -54 1 1 38 55 81 118 43 63 91 131 106 150 28 33 28 35 9 42 -28 10 -190 38 -220 38 -14 -1 -36 -7 -50 -14z"
       id="path152"
       style="fill:#7c7c7c;fill-opacity:1" />
    <path
       d="M3431 7373 c-45 -65 -92 -135 -103 -155 -20 -35 -20 -39 -6 -50 9 -7 48 -39 87 -72 40 -32 73 -57 75 -55 2 2 33 54 69 114 36 61 80 130 96 155 17 25 31 50 31 55 0 12 -143 125 -158 125 -6 0 -47 -53 -91 -117z"
       id="path154"
       style="fill:#7c7c7c;fill-opacity:1" />
    <path
       d="M3932 7400 c-84 -26 -154 -49 -156 -51 -46 -56 -190 -298 -183 -306 11 -10 311 101 330 122 23 25 197 272 197 280 0 11 -41 2 -188 -45z"
       id="path156"
       style="fill:#7c7c7c;fill-opacity:1" />
    <path
       d="M2820 7128 c-44 -68 -154 -278 -148 -282 3 -3 312 -76 319 -76 8 0 183 359 178 364 -11 11 -229 56 -269 56 -39 0 -42 -3 -80 -62z"
       id="path158"
       style="fill:#7c7c7c;fill-opacity:1" />
    <path
       d="M3236 7068 c-37 -56 -158 -319 -153 -332 6 -16 172 -156 184 -156 5 0 24 37 43 83 18 45 53 123 76 174 24 51 41 98 38 105 -3 7 -43 44 -89 81 l-84 68 -15 -23z"
       id="path160"
       style="fill:#7c7c7c;fill-opacity:1" />
    <path
       d="M3695 6992 c-83 -31 -155 -60 -161 -64 -20 -13 -169 -346 -160 -355 2 -3 73 24 158 59 l153 63 88 174 c48 96 87 176 87 178 0 7 -20 0 -165 -55z"
       id="path162"
       style="fill:#7c7c7c;fill-opacity:1" />
    <path
       d="M2606 6721 c-35 -66 -140 -350 -133 -357 5 -6 315 -84 331 -84 10 0 22 23 36 68 11 37 41 124 66 195 26 70 44 130 41 133 -8 8 -283 74 -308 74 -10 0 -25 -13 -33 -29z"
       id="path164"
       style="fill:#7c7c7c;fill-opacity:1" />
    <path
       d="M3021 6612 c-13 -25 -107 -307 -116 -349 -6 -31 -3 -34 95 -110 56 -43 107 -79 114 -81 7 -2 17 20 24 58 7 33 31 116 52 184 22 68 40 131 40 139 0 8 -37 46 -82 83 -46 37 -91 74 -100 81 -14 13 -18 12 -27 -5z"
       id="path166"
       style="fill:#7c7c7c;fill-opacity:1" />
    <path
       d="M3555 6553 c-167 -72 -224 -102 -234 -121 -13 -24 -101 -334 -101 -356 0 -9 3 -16 8 -16 4 0 72 33 152 73 l145 72 51 155 c28 85 57 168 63 183 13 33 14 47 4 46 -5 0 -44 -17 -88 -36z"
       id="path168"
       style="fill:#7c7c7c;fill-opacity:1" />
    <path
       d="M2406 6153 c-42 -168 -67 -296 -59 -304 14 -13 336 -100 349 -95 8 3 14 16 14 28 0 13 16 100 35 193 19 94 35 177 35 186 0 13 -36 26 -158 58 -87 22 -166 41 -174 41 -11 0 -23 -29 -42 -107z"
       id="path170"
       style="fill:#7c7c7c;fill-opacity:1" />
    <path
       d="M2842 6018 c-42 -198 -56 -306 -43 -322 18 -21 219 -166 231 -166 6 0 10 19 10 43 0 37 21 178 48 320 l10 48 -52 42 c-70 59 -171 137 -177 137 -3 0 -15 -46 -27 -102z"
       id="path172"
       style="fill:#7c7c7c;fill-opacity:1" />
    <path
       d="M3338 6010 c-75 -39 -141 -78 -147 -88 -10 -19 -61 -331 -61 -375 0 -15 3 -27 8 -27 4 0 68 33 142 74 l135 73 12 54 c7 30 23 113 37 184 14 72 29 140 32 153 4 15 2 22 -7 21 -8 0 -76 -31 -151 -69z"
       id="path174"
       style="fill:#7c7c7c;fill-opacity:1" />
    <path
       d="M2316 5708 c-16 -92 -28 -217 -29 -309 l-2 -103 75 -22 c41 -12 122 -36 179 -52 58 -17 107 -29 111 -27 4 2 10 65 14 139 3 75 11 172 17 217 5 45 8 84 5 86 -6 6 -336 103 -352 103 -6 0 -14 -15 -18 -32z"
       id="path176"
       style="fill:#7c7c7c;fill-opacity:1" />
    <path
       d="M2766 5553 c-3 -15 -9 -113 -12 -218 l-7 -190 118 -83 c65 -46 124 -86 131 -89 11 -4 14 14 14 89 0 52 3 149 6 215 l7 120 -50 39 c-53 42 -184 137 -194 142 -4 2 -9 -10 -13 -25z"
       id="path178"
       style="fill:#7c7c7c;fill-opacity:1" />
    <path
       d="M3265 5475 c-71 -40 -135 -81 -142 -92 -17 -25 -31 -423 -15 -423 14 0 247 137 261 153 5 7 15 82 20 167 6 85 14 181 17 213 4 31 3 57 -2 56 -5 0 -67 -33 -139 -74z"
       id="path180"
       style="fill:#7c7c7c;fill-opacity:1" />
    <path
       d="M2273 4979 c4 -115 11 -219 17 -229 10 -20 100 -52 260 -95 135 -35 127 -39 118 53 -3 42 -7 141 -7 218 -1 101 -5 144 -13 151 -12 10 -353 113 -372 113 -5 0 -6 -87 -3 -211z"
       id="path182"
       style="fill:#7c7c7c;fill-opacity:1" />
    <path
       d="M2745 4903 c12 -215 23 -316 37 -329 20 -19 262 -164 266 -159 2 2 -1 41 -7 87 -6 46 -14 137 -17 203 -4 66 -11 126 -17 133 -11 14 -254 182 -263 182 -3 0 -3 -53 1 -117z"
       id="path184"
       style="fill:#7c7c7c;fill-opacity:1" />
    <path
       d="M3240 4911 l-125 -78 1 -82 c1 -95 24 -320 33 -339 5 -9 43 10 132 67 l124 80 -1 38 c-9 263 -19 393 -28 392 -6 0 -67 -35 -136 -78z"
       id="path186"
       style="fill:#7c7c7c;fill-opacity:1" />
    <path
       d="M2300 4591 c0 -79 60 -405 77 -422 13 -13 373 -103 380 -95 3 3 -8 78 -25 168 -17 90 -34 188 -39 218 l-8 54 -50 14 c-27 7 -106 29 -175 49 -69 19 -133 38 -142 40 -14 4 -18 -1 -18 -26z"
       id="path188"
       style="fill:#7c7c7c;fill-opacity:1" />
    <path
       d="M2797 4363 c23 -142 61 -314 74 -329 19 -23 284 -164 287 -153 2 5 -5 45 -17 87 -11 42 -29 124 -40 182 -11 58 -23 112 -26 121 -6 15 -264 179 -282 179 -6 0 -4 -34 4 -87z"
       id="path190"
       style="fill:#7c7c7c;fill-opacity:1" />
    <path
       d="M3298 4362 c-65 -42 -119 -82 -122 -88 -4 -11 21 -143 53 -271 10 -43 22 -90 25 -105 4 -16 12 -28 18 -28 7 0 61 32 120 71 74 49 108 78 108 90 0 11 -9 59 -19 107 -11 48 -27 135 -37 195 -9 59 -20 107 -23 107 -3 0 -59 -35 -123 -78z"
       id="path192"
       style="fill:#7c7c7c;fill-opacity:1" />
    <path
       d="M2400 4048 c0 -51 110 -380 136 -409 8 -9 42 -24 75 -33 74 -21 302 -66 307 -61 2 2 -18 70 -46 152 -27 81 -55 171 -62 200 -6 29 -17 56 -23 61 -7 5 -48 17 -92 26 -88 19 -250 60 -277 71 -12 5 -18 2 -18 -7z"
       id="path194"
       style="fill:#7c7c7c;fill-opacity:1" />
    <path
       d="M2900 3894 c0 -28 113 -355 129 -375 16 -19 300 -153 308 -145 3 2 -5 26 -16 53 -12 26 -43 109 -70 183 l-48 135 -64 35 c-212 117 -239 130 -239 114z"
       id="path196"
       style="fill:#7c7c7c;fill-opacity:1" />
    <path
       d="M3413 3827 c-56 -40 -104 -77 -107 -83 -4 -10 126 -370 138 -382 10 -9 216 132 216 148 0 8 -18 67 -40 130 -21 63 -49 148 -60 188 -12 40 -26 72 -33 71 -7 0 -58 -33 -114 -72z"
       id="path198"
       style="fill:#7c7c7c;fill-opacity:1" />
    <path
       d="M2580 3515 c0 -13 135 -288 163 -332 31 -49 61 -71 114 -84 52 -13 286 -49 290 -45 2 1 -39 89 -89 195 -69 142 -98 192 -113 195 -203 40 -336 67 -349 72 -9 3 -16 3 -16 -1z"
       id="path200"
       style="fill:#7c7c7c;fill-opacity:1" />
    <path
       d="M3605 3330 c-54 -38 -100 -71 -102 -74 -2 -2 3 -21 12 -42 19 -45 164 -302 174 -309 10 -5 203 124 199 133 -2 4 -43 87 -91 185 -48 97 -89 177 -90 177 -2 0 -48 -31 -102 -70z"
       id="path202"
       style="fill:#7c7c7c;fill-opacity:1" />
    <path
       d="M3080 3384 c0 -3 39 -81 86 -175 64 -127 92 -173 112 -183 47 -24 295 -117 300 -112 2 3 -16 40 -40 83 -25 43 -65 115 -88 161 -24 45 -48 86 -54 91 -13 11 -298 141 -308 141 -5 0 -8 -3 -8 -6z"
       id="path204"
       style="fill:#7c7c7c;fill-opacity:1" />
    <path
       d="M2880 2964 c100 -147 212 -278 255 -298 34 -16 212 -39 267 -34 l37 3 -51 65 c-27 36 -79 109 -115 162 -43 66 -71 99 -86 102 -12 2 -78 12 -147 21 -69 9 -140 19 -159 22 l-34 6 33 -49z"
       id="path206"
       style="fill:#7c7c7c;fill-opacity:1" />
    <path
       d="M3852 2878 c-50 -35 -92 -67 -92 -72 0 -19 217 -286 233 -286 11 0 154 90 167 105 6 7 -4 27 -27 55 -19 25 -69 93 -110 153 -41 59 -75 107 -76 107 -2 0 -44 -28 -95 -62z"
       id="path208"
       style="fill:#7c7c7c;fill-opacity:1" />
    <path
       d="M3336 2908 c56 -97 194 -278 223 -292 23 -12 299 -96 315 -96 3 0 -31 46 -76 103 -46 57 -94 119 -108 139 -28 41 -41 48 -219 113 -135 49 -146 51 -135 33z"
       id="path210"
       style="fill:#7c7c7c;fill-opacity:1" />
    <path
       d="M3239 2556 c25 -30 163 -138 248 -193 95 -62 141 -79 236 -87 l68 -5 -140 138 -139 138 -109 7 c-59 4 -124 10 -143 13 -32 6 -34 5 -21 -11z"
       id="path212"
       style="fill:#7c7c7c;fill-opacity:1" />
    <path
       d="M4148 2499 c-43 -29 -78 -55 -78 -59 0 -13 250 -220 265 -220 7 0 140 75 154 87 2 1 -25 29 -60 60 -35 31 -91 85 -124 120 -33 35 -64 63 -70 63 -5 0 -45 -23 -87 -51z"
       id="path214"
       style="fill:#7c7c7c;fill-opacity:1" />
    <path
       d="M3735 2422 c149 -145 155 -148 276 -171 57 -11 127 -23 154 -26 l50 -6 -30 26 c-92 82 -209 181 -221 188 -17 10 -301 87 -317 87 -7 -1 33 -45 88 -98z"
       id="path216"
       style="fill:#7c7c7c;fill-opacity:1" />
    <path
       d="M4535 2239 c-11 -6 -49 -29 -85 -50 l-65 -38 -95 14 c-121 18 -513 56 -518 50 -12 -11 227 -98 343 -125 135 -31 238 -39 560 -45 241 -4 304 -3 285 6 -14 7 -71 34 -128 60 -57 27 -136 69 -176 94 -77 48 -89 51 -121 34z"
       id="path218"
       style="fill:#7c7c7c;fill-opacity:1" />
  </g>
</svg>
